<svg width="15" height="14" viewBox="0 0 15 14" fill="none" xmlns="http://www.w3.org/2000/svg">
<path d="M14.4252 7.89688L12.2537 8.99766C12.1053 9.07685 11.9257 9.04518 11.8007 8.92639L10.3401 7.44548C10.1838 7.28709 10.1838 7.0416 10.3401 6.88321L11.8241 5.37852C11.9413 5.25973 12.1288 5.22805 12.2772 5.30725L14.4252 6.40012C15.0422 6.70105 15.0422 7.58803 14.4252 7.89688Z" fill="#FBBC04"/>
<path d="M11.2217 4.36543C11.4638 4.48422 11.5107 4.80892 11.3232 4.99899L10.0188 6.3215L9.46421 6.88379C9.30799 7.04218 9.06586 7.04218 8.90964 6.88379L3.33263 1.22938C3.02019 0.912606 3.3873 0.39786 3.78566 0.595843L11.2217 4.36543Z" fill="#34A853"/>
<path d="M0.833252 13.5995V0.39798C0.833252 0.04953 1.24723 -0.132627 1.49718 0.112872L8.34737 6.85223C8.5114 7.01062 8.50359 7.27194 8.33956 7.43033L1.48937 13.8925C1.23942 14.1301 0.833252 13.9479 0.833252 13.5995Z" fill="#4285F4"/>
<path d="M11.199 9.93369L3.86452 13.6558C3.46616 13.8538 3.09905 13.339 3.41148 13.0222L8.9182 7.4391C9.07442 7.28072 9.31655 7.28072 9.47277 7.4391L11.3083 9.30015C11.488 9.49021 11.4333 9.8149 11.199 9.93369Z" fill="#EA4335"/>
</svg>
